<?xml version="1.0" encoding="UTF-8" standalone="no"?>
<svg
   xmlns:dc="http://purl.org/dc/elements/1.1/"
   xmlns:cc="http://creativecommons.org/ns#"
   xmlns:rdf="http://www.w3.org/1999/02/22-rdf-syntax-ns#"
   xmlns:svg="http://www.w3.org/2000/svg"
   xmlns="http://www.w3.org/2000/svg"
   xmlns:xlink="http://www.w3.org/1999/xlink"
   xmlns:sodipodi="http://sodipodi.sourceforge.net/DTD/sodipodi-0.dtd"
   xmlns:inkscape="http://www.inkscape.org/namespaces/inkscape"
   id="svg41802"
   sodipodi:docname="pluginIcon.svg"
   viewBox="0 0 250.92 250"
   version="1.1"
   inkscape:version="1.0.1 (3bc2e813f5, 2020-09-07)">
  <defs
     id="defs26">
    <linearGradient
       inkscape:collect="always"
       id="linearGradient957">
      <stop
         style="stop-color:#48d800;stop-opacity:1"
         offset="0"
         id="stop953" />
      <stop
         style="stop-color:#000400;stop-opacity:1"
         offset="1"
         id="stop955" />
    </linearGradient>
    <linearGradient
       inkscape:collect="always"
       xlink:href="#linearGradient957"
       id="linearGradient959"
       x1="65.185196"
       y1="40.987656"
       x2="200"
       y2="195.30864"
       gradientUnits="userSpaceOnUse" />
  </defs>
  <title
     id="title3048">Gingko Leaf</title>
  <sodipodi:namedview
     id="base"
     bordercolor="#666666"
     inkscape:pageshadow="2"
     inkscape:window-y="-11"
     fit-margin-left="0"
     pagecolor="#ffffff"
     inkscape:window-height="2080"
     inkscape:window-maximized="1"
     inkscape:zoom="4.05"
     inkscape:window-x="-11"
     showgrid="false"
     borderopacity="1.0"
     inkscape:current-layer="layer1"
     inkscape:cx="-11.487477"
     inkscape:cy="197.9812"
     fit-margin-top="0"
     fit-margin-right="0"
     fit-margin-bottom="0"
     inkscape:window-width="3840"
     inkscape:pageopacity="0.0"
     inkscape:document-units="px"
     inkscape:document-rotation="0" />
  <g
     id="layer1"
     inkscape:label="Layer 1"
     inkscape:groupmode="layer"
     transform="translate(-187.17,-619.13)"
     style="display:inline;opacity:1">
    <path
       id="path40770"
       style="display:inline;fill:#000000;stroke-width:1.00946;enable-background:new"
       d="m 153.35156,0 c -0.7151,0.04447148 -1.32017,0.23428187 -1.9414,0.56054688 -1.16504,0.61186002 -3.85593,1.31901252 -5.98047,1.57031252 -2.12455,0.2513 -5.48649,1.1219469 -7.47071,1.9355468 -2.17142,0.8903501 -4.75796,1.2320819 -6.49609,0.8574219 -2.03059,-0.43768 -3.92391,-0.022109 -6.38086,1.4003907 -1.92176,1.1127 -4.42891,2.0234374 -5.57031,2.0234374 -1.1414,0 -3.59028,1.1344844 -5.44336,2.5214848 -3.19808,2.3938 -3.76573,2.486697 -11.18945,1.841797 l -7.820316,-0.679688 -6.457032,4.652344 c -3.551469,2.559 -6.457031,5.043031 -6.457031,5.519531 0,0.47649 -3.448912,4.256691 -7.664062,8.400391 -12.93538,12.716 -15.082031,15.339453 -15.082031,18.439453 0,3.1937 2.656046,6.672584 16.191406,21.208984 10.27982,11.04 18.421875,21.287547 18.421875,23.185547 0,3.9922 -6.302915,2.161175 -15.328125,-4.453125 -7.62172,-5.5856 -21.455684,-16.585328 -22.777344,-18.111328 -0.56098,-0.6478 -3.231164,-2.264197 -5.933594,-3.591797 -2.70243,-1.3276 -6.783019,-3.340856 -9.068359,-4.472656 -6.35478,-3.1472 -8.433475,-2.735866 -12.927735,2.552734 -2.1545,2.5353 -5.143931,6.997716 -6.644531,9.916016 -1.5006,2.9183 -4.007752,6.477656 -5.570312,7.910156 -1.56256,1.4324 -2.841797,3.342141 -2.841797,4.244141 0,0.90194 -1.597941,3.455881 -3.5507814,5.675781 -3.45844,3.9313 -3.5284562,4.174147 -2.7539062,9.373048 1.4415,9.6752 1.0697537,16.07658 -1.0664063,18.39258 -1.49989,1.6256 -1.8918762,3.33149 -1.7539062,7.62109 0.11357,3.5301 -0.5521538,7.48868 -1.8398438,10.95508 l -2.01562497,5.42773 2.12499997,6.19336 c 1.20315,3.5049 3.5911032,7.78368 5.5019531,9.85938 3.3188298,3.605 4.3044818,6.86491 2.4199219,8.00781 -1.45413,0.88194 -0.060191,6.16968 3.2929689,12.48828 3.28816,6.1962 3.567563,9.35361 1.626953,18.38281 -1.16158,5.4047 -1.107844,5.76474 1.384766,9.46094 1.4253,2.1136 2.971086,3.84375 3.435546,3.84375 0.46451,0 2.564619,2.88652 4.667969,6.41602 4.79059,8.0388 7.362577,10.08203 12.691407,10.08203 5.43064,0 19.400344,-7.0522 37.146484,-18.75 20.70536,-13.648 24.870137,-16.08585 46.060548,-26.96485 12.46458,-6.3991 16.52162,-7.98863 24.72265,-9.67773 10.64362,-2.1922 18.05357,-1.9915 27.4336,0.74219 7.71068,2.2471 15.35882,10.08042 45.63476,46.73242 4.3461,5.2615 25.38418,28.29687 25.84375,28.29687 0.21759,0 0.3962,-0.69835 0.39649,-1.55078 0,-2.0074 -2.96626,-8.15234 -3.93555,-8.15234 -0.40965,0 -1.86139,-1.63707 -3.22656,-3.63867 -1.36518,-2.0016 -4.65227,-5.86574 -7.30273,-8.58594 -6.87631,-7.0573 -15.21666,-16.98964 -19.88477,-23.68164 -1.67546,-2.4019 -4.90929,-6.115 -7.1875,-8.25 -5.41188,-5.0717 -14.36372,-18.394 -17.4707,-26 -6.42503,-18.99501 2.97384,-40.97564 9.97461,-54.3125 8.95622,-16.973001 13.75772,-24.06811 38.18554,-56.41211 6.93755,-9.1858 12.40882,-18.809922 15.30078,-26.919922 3.25249,-9.1208 3.01508,-11.304687 -1.48632,-13.679687 -1.90362,-1.0043 -4.79599,-3.28536 -6.42774,-5.06836 -4.99592,-5.4590998 -11.14551,-8.6158779 -18.29492,-9.3925779 -6.21579,-0.67523 -6.67317,-0.5697937 -13.83398,3.1914063 -7.00512,3.6795996 -7.61311,3.8285996 -11.28126,2.7499996 -2.13278,-0.6270796 -5.11264,-2.036359 -6.62109,-3.130859 -2.01927,-1.4651 -3.56297,-1.8284062 -5.85351,-1.3789062 -2.43901,0.4787 -3.8443,0.062513 -6.50586,-1.9296876 -3.08986,-2.3128 -3.92251,-2.4842781 -9.25196,-1.8925781 -4.239,0.47065 -7.21309,0.2152056 -10.77343,-0.9277343 C 156.04303,0.25559375 154.54341,-0.07411914 153.35156,0 Z"
       transform="translate(187.17,619.13)"
       inkscape:label="path40770"
       mask="none"
       sodipodi:nodetypes="ssssscsccccscscsccscsscsccccccccccsssssccsccscsssssccscccsccscsscs" />
    <path
       style="fill:url(#linearGradient959);fill-opacity:1;stroke-width:0.24566929;stroke-miterlimit:4;stroke-dasharray:none"
       d="m 238.47585,244.09231 c -11.53008,-12.42894 -17.1241,-18.75893 -26.34835,-29.81482 -21.15937,-25.36093 -29.07147,-33.7563 -35.46502,-37.63119 -2.42714,-1.471 -8.21922,-3.10079 -13.20521,-3.71571 -7.49076,-0.92382 -18.65392,0.53187 -27.38544,3.57111 -3.78264,1.31665 -6.65783,2.6517 -16.69511,7.75207 -18.39914,9.34939 -23.810859,12.49192 -42.362214,24.5993 -15.890025,10.37048 -25.172489,15.66333 -32.822971,18.71559 -3.856395,1.53855 -5.829,1.97573 -8.209688,1.81944 -3.874956,-0.25439 -6.426946,-2.16638 -9.74705,-7.30267 -4.432403,-6.85704 -5.499331,-8.33699 -6.846304,-9.49665 -2.505205,-2.1568 -5.066407,-6.28475 -5.071089,-8.17318 -0.0013,-0.53515 0.401498,-2.9796 0.895166,-5.4321 0.724614,-3.59982 0.902758,-5.05385 0.924455,-7.54551 0.03371,-3.87113 -0.356673,-5.24815 -3.044987,-10.74074 -2.244997,-4.58684 -3.2129631,-7.27697 -3.402607,-9.45638 -0.1254015,-1.44113 -0.086838,-1.60575 0.525993,-2.24541 1.502565,-1.56834 0.918289,-3.85664 -1.8713999,-7.3293 -3.4393047,-4.2813 -4.8408578,-6.89912 -6.9392364,-12.96106 l -1.33062323,-3.844 1.07852933,-2.82267 c 2.1124095,-5.52848 2.788115,-8.96774 2.7904725,-14.20318 0.00168,-3.71253 0.3213543,-5.11223 1.5036081,-6.58339 2.2628045,-2.81575 2.6985593,-8.07475 1.4473961,-17.46819 -0.2622798,-1.96914 -0.4763306,-4.191362 -0.4756684,-4.938276 0.00148,-1.665783 0.5385916,-2.677985 2.8818654,-5.430933 1.8248425,-2.143877 3.4801155,-4.69885 3.6799785,-5.680178 0.24455,-1.200738 0.986349,-2.33241 2.901025,-4.425743 2.134998,-2.334215 3.880803,-4.847015 5.845585,-8.413763 3.53357,-6.41463 8.402454,-12.364966 11.036895,-13.488351 1.117013,-0.476318 3.212838,-0.421096 4.784092,0.126055 1.646368,0.573311 13.916212,6.584217 15.779395,7.730212 0.746913,0.459405 2.924383,2.164563 4.83882,3.789239 7.647565,6.49006 21.241891,16.857238 25.337106,19.322344 1.419499,0.854464 3.46062,1.895234 4.535822,2.312824 3.81502,1.481682 6.028993,1.115339 6.028993,-0.997609 0,-2.455944 -6.507707,-10.66407 -20.478003,-25.828763 C 61.992229,55.271315 59.649251,52.120873 59.632049,49.092308 c -0.01667,-2.932783 1.103348,-4.355625 12.529956,-15.917889 4.511303,-4.564862 8.591259,-8.833931 9.066567,-9.486822 0.475309,-0.65289 1.253087,-1.637685 1.728396,-2.188433 0.768891,-0.890927 6.714397,-5.482668 10.747913,-8.300663 l 1.488654,-1.04004 5.732775,0.503961 c 9.32354,0.81962 9.663,0.775466 13.39666,-1.74257 2.30873,-1.5570366 3.72278,-2.1506943 6.38686,-2.6813924 0.73321,-0.1460587 2.56654,-0.873673 4.07407,-1.6169205 3.21941,-1.5872434 4.56422,-1.8988367 6.73595,-1.5607288 1.90168,0.2960644 4.25108,-0.023193 6.55652,-0.8909551 2.04612,-0.7701598 4.83807,-1.479237 7.84356,-1.9920474 1.29012,-0.2201267 3.53845,-0.8054573 4.99629,-1.3007347 l 2.65062,-0.90050442 2.28766,0.54625513 c 1.25821,0.30044032 3.10739,0.76673119 4.10929,1.03620179 2.67442,0.7193101 5.23863,0.8530563 9.47163,0.49403 5.07379,-0.4303377 5.56396,-0.3339057 8.64826,1.7013961 3.48765,2.3014719 3.64489,2.3514949 6.73955,2.1441961 2.9907,-0.2003348 3.68705,-0.038694 5.9357,1.3778267 2.11872,1.3346688 5.37037,2.8132945 7.25977,3.3012425 2.97529,0.768384 3.67675,0.583386 10.55077,-2.7825534 3.36374,-1.6470966 6.55202,-3.1274254 7.08507,-3.2896198 1.94396,-0.5915002 7.34672,-0.2156434 11.12478,0.7739232 5.20214,1.3625709 8.83459,3.5510652 13.70851,8.259167 3.03614,2.932848 4.72452,4.273995 6.94973,5.520439 2.94598,1.650182 3.79153,3.420818 3.19101,6.681988 -0.7321,3.975647 -3.82155,11.812622 -6.84764,17.370274 -3.92401,7.206765 -5.77336,9.920301 -17.1177,25.116775 -17.84048,23.898489 -22.55467,30.919077 -29.84426,44.44553 -8.71422,16.16997 -12.75585,28.15467 -13.62589,40.405 -0.41825,5.88912 0.35582,12.43882 2.0052,16.9667 2.44206,6.70393 10.68191,19.07189 17.32042,25.99783 3.62259,3.77943 6.08515,6.66292 8.08667,9.46889 4.33916,6.08317 10.60925,13.55083 18.03659,21.48148 4.32278,4.61572 6.24982,6.85219 8.38964,9.73679 0.95397,1.28601 2.28262,2.80038 2.95254,3.36527 1.2931,1.09035 2.81727,3.67554 3.72843,6.32385 0.67108,1.95054 0.6357,2.30249 -0.23147,2.30249 -0.60467,0 -1.3498,-0.68921 -5.00525,-4.62963 z"
       id="path951"
       transform="translate(187.17,619.13)" />
  </g>
  <metadata
     id="metadata23">
    <rdf:RDF>
      <cc:Work>
        <dc:format>image/svg+xml</dc:format>
        <dc:type
           rdf:resource="http://purl.org/dc/dcmitype/StillImage" />
        <cc:license
           rdf:resource="http://creativecommons.org/licenses/publicdomain/" />
        <dc:publisher>
          <cc:Agent
             rdf:about="http://openclipart.org/">
            <dc:title>Openclipart</dc:title>
          </cc:Agent>
        </dc:publisher>
        <dc:title>Gingko Leaf</dc:title>
        <dc:date>2012-01-02T04:44:25</dc:date>
        <dc:description>This is a picture of a gingko leaf that is converted to vectors. Its an element that was going to be used for a client project, but was not selected. Please share!</dc:description>
        <dc:source>https://openclipart.org/detail/166763/gingko-leaf-d-by-rejon</dc:source>
        <dc:creator>
          <cc:Agent>
            <dc:title>rejon</dc:title>
          </cc:Agent>
        </dc:creator>
        <dc:subject>
          <rdf:Bag>
            <rdf:li>conversion</rdf:li>
            <rdf:li>gingko</rdf:li>
            <rdf:li>knowledge</rdf:li>
            <rdf:li>leaf</rdf:li>
            <rdf:li>memory</rdf:li>
            <rdf:li>nature</rdf:li>
            <rdf:li>plant</rdf:li>
            <rdf:li>vectorized</rdf:li>
          </rdf:Bag>
        </dc:subject>
      </cc:Work>
      <cc:License
         rdf:about="http://creativecommons.org/licenses/publicdomain/">
        <cc:permits
           rdf:resource="http://creativecommons.org/ns#Reproduction" />
        <cc:permits
           rdf:resource="http://creativecommons.org/ns#Distribution" />
        <cc:permits
           rdf:resource="http://creativecommons.org/ns#DerivativeWorks" />
      </cc:License>
    </rdf:RDF>
  </metadata>
</svg>
